<?xml version="1.0" encoding="UTF-8"?>
<svg xmlns="http://www.w3.org/2000/svg" width="40px" height="40px" viewBox="0 0 40 40" version="1.1">
    <g id="surface1">
        <path style=" stroke:none;fill-rule:nonzero;fill:rgb(0%,0%,0%);fill-opacity:1;" d="M 20 2.257812 C 29.800781 2.257812 37.746094 10.203125 37.746094 20 C 37.746094 29.800781 29.800781 37.746094 20 37.746094 C 10.203125 37.746094 2.257812 29.800781 2.257812 20 C 2.265625 10.207031 10.207031 2.265625 20 2.257812 M 20 0 C 8.953125 0 0 8.953125 -0.00390625 20 C -0.00390625 31.046875 8.949219 40.003906 19.996094 40.003906 C 31.042969 40.003906 40 31.046875 40 20 C 40 8.957031 31.046875 0 20 0 Z M 20 0 "/>
        <path style="fill:none;stroke-width:1;stroke-linecap:butt;stroke-linejoin:miter;stroke:rgb(0%,0%,0%);stroke-opacity:1;stroke-miterlimit:10;" d="M 87.930731 8.373696 L 87.930731 95.598546 " transform="matrix(0.282227,0,0,0.282227,0,0)"/>
        <path style="stroke:none;fill-rule:nonzero;fill:rgb(0%,0%,0%);fill-opacity:1;" d="M 26.109375 30.449219 L 23.523438 30.449219 C 23.398438 30.449219 23.277344 30.394531 23.195312 30.296875 C 23.109375 30.203125 23.074219 30.074219 23.089844 29.949219 L 23.621094 26.261719 C 23.652344 26.046875 23.835938 25.886719 24.054688 25.886719 L 25.570312 25.886719 C 25.78125 25.886719 25.964844 26.039062 26 26.246094 L 26.53125 29.949219 C 26.546875 30.074219 26.511719 30.199219 26.429688 30.292969 C 26.351562 30.390625 26.234375 30.445312 26.109375 30.449219 Z M 26.109375 30.449219 "/>
        <path style="stroke:none;fill-rule:nonzero;fill:rgb(0%,0%,0%);fill-opacity:1;" d="M 18.640625 19.226562 C 18.320312 18.910156 18.148438 17.289062 18.148438 17.289062 C 18.128906 16.867188 17.78125 16.535156 17.359375 16.535156 L 15.003906 16.535156 C 14.582031 16.535156 14.234375 16.867188 14.214844 17.289062 C 14.214844 17.289062 14.042969 18.910156 13.722656 19.226562 C 12.800781 20.132812 12.363281 20.824219 12.363281 22.21875 C 12.363281 25.0625 14.273438 25.886719 16.183594 25.886719 C 18.09375 25.886719 20 25.0625 20 22.21875 C 20 20.824219 19.5625 20.132812 18.640625 19.226562 Z M 18.640625 19.226562 "/>
        <path style="stroke:none;fill-rule:nonzero;fill:rgb(0%,0%,0%);fill-opacity:1;" d="M 15.160156 13.90625 L 17.214844 13.90625 C 17.496094 13.90625 17.726562 14.132812 17.726562 14.417969 C 17.726562 14.496094 17.664062 14.558594 17.582031 14.558594 L 14.789062 14.558594 C 14.710938 14.558594 14.644531 14.496094 14.644531 14.417969 C 14.644531 14.28125 14.699219 14.148438 14.796875 14.054688 C 14.890625 13.957031 15.023438 13.90625 15.160156 13.90625 Z M 15.160156 13.90625 "/>
        <path style="fill:none;stroke-width:2;stroke-linecap:butt;stroke-linejoin:miter;stroke:rgb(0%,0%,0%);stroke-opacity:1;stroke-miterlimit:10;" d="M 57.342519 6.4083 L 57.342519 50.823492 " transform="matrix(0.282227,0,0,0.282227,0,0)"/>
        <path style="stroke:none;fill-rule:nonzero;fill:rgb(0%,0%,0%);fill-opacity:1;" d="M 14.789062 15.230469 L 17.570312 15.230469 C 17.652344 15.230469 17.714844 15.296875 17.714844 15.375 L 17.714844 15.742188 C 17.714844 15.820312 17.652344 15.886719 17.570312 15.886719 L 14.789062 15.886719 C 14.710938 15.886719 14.644531 15.820312 14.644531 15.742188 L 14.644531 15.375 C 14.644531 15.296875 14.710938 15.230469 14.789062 15.230469 Z M 14.789062 15.230469 "/>
    </g>
</svg>
