<svg xmlns="http://www.w3.org/2000/svg" viewBox="0 0 141.73 141.73">
    <defs>
        <style>.cls-1{fill:#fff;}.cls-2{fill:#231f20;}.cls-3,.cls-4{fill:none;stroke:#231f20;stroke-miterlimit:10;}.cls-4{stroke-width:2px;}</style>
    </defs>
    <title>Asset 1</title>
    <g id="Layer_2" data-name="Layer 2">
        <g id="Layer_2-2" data-name="Layer 2">
            <path class="cls-1" d="M70.87,137.73a66.87,66.87,0,1,1,66.86-66.86A66.94,66.94,0,0,1,70.87,137.73Z"/>
            <path class="cls-2" d="M70.87,8A62.87,62.87,0,1,1,8,70.87,62.93,62.93,0,0,1,70.87,8m0-8a70.87,70.87,0,1,0,70.86,70.87A70.87,70.87,0,0,0,70.87,0Z"/>
            <line class="cls-3" x1="87.93" y1="8.37" x2="87.93" y2="95.6"/>
            <path class="cls-2" d="M92.51,107.89H83.35a1.55,1.55,0,0,1-1.53-1.77L83.7,93.05a1.54,1.54,0,0,1,1.53-1.33H90.6A1.55,1.55,0,0,1,92.13,93L94,106.12A1.55,1.55,0,0,1,92.51,107.89Z"/>
            <path d="M66.05,68.12C64.91,67,64.3,61.26,64.3,61.26a2.8,2.8,0,0,0-2.79-2.67H53.16a2.8,2.8,0,0,0-2.79,2.67s-.61,5.74-1.75,6.86c-3.27,3.21-4.81,5.66-4.81,10.6,0,10.08,6.76,13,13.53,13s13.53-2.92,13.53-13C70.87,73.78,69.32,71.33,66.05,68.12Z"/>
            <path d="M53.71,49.27H61a1.81,1.81,0,0,1,1.81,1.81v0a.51.51,0,0,1-.51.51H52.4a.51.51,0,0,1-.51-.51v0A1.81,1.81,0,0,1,53.71,49.27Z"/>
            <line class="cls-4" x1="57.34" y1="6.41" x2="57.34" y2="50.83"/>
            <rect x="51.89" y="53.97" width="10.88" height="2.32" rx="0.51"/>
        </g>
    </g>
</svg>
